<svg width="810" height="186" viewBox="0 0 810 186" fill="none" xmlns="http://www.w3.org/2000/svg">
<path d="M790.325 124.531C793.345 124.531 796.06 125.019 798.47 125.994C800.91 126.969 802.984 128.32 804.692 130.047C806.401 131.774 807.712 133.85 808.627 136.273C809.542 138.669 810 141.288 810 144.129C810 149.923 808.216 154.631 804.647 158.253C801.108 161.902 796.334 163.727 790.325 163.727C787.336 163.727 784.621 163.253 782.18 162.306C779.771 161.331 777.712 159.98 776.003 158.253C774.295 156.498 772.968 154.422 772.023 152.027C771.107 149.631 770.65 146.998 770.65 144.129C770.65 141.288 771.107 138.669 772.023 136.273C772.938 133.85 774.234 131.774 775.912 130.047C777.62 128.32 779.694 126.969 782.135 125.994C784.575 125.019 787.305 124.531 790.325 124.531ZM790.325 127.247C787.214 127.247 784.728 128.626 782.867 131.384C781.037 134.142 780.121 138.39 780.121 144.129C780.121 149.868 781.037 154.116 782.867 156.874C784.728 159.604 787.214 160.969 790.325 160.969C793.436 160.969 795.907 159.59 797.737 156.832C799.598 154.074 800.529 149.84 800.529 144.129C800.529 141.26 800.285 138.766 799.796 136.649C799.308 134.532 798.622 132.777 797.737 131.384C796.853 129.991 795.785 128.961 794.535 128.292C793.284 127.596 791.881 127.247 790.325 127.247Z" fill="white"/>
<path d="M737.66 128.125C743.578 127.568 748.733 126.426 753.126 124.698C753.888 124.977 754.422 125.339 754.727 125.785C754.727 140.243 754.849 150.578 755.093 156.79C755.124 157.515 755.352 158.141 755.779 158.671C756.237 159.172 756.878 159.562 757.701 159.841C758.525 160.119 759.211 160.328 759.76 160.467C760.309 160.579 761.026 160.69 761.911 160.802C762.094 161.136 762.185 161.484 762.185 161.846C762.185 162.208 762.094 162.515 761.911 162.766C757.884 162.598 753.98 162.515 750.197 162.515C746.476 162.515 742.602 162.598 738.575 162.766C738.453 162.32 738.392 162.013 738.392 161.846C738.392 161.707 738.453 161.359 738.575 160.802C739.582 160.69 740.405 160.579 741.046 160.467C741.687 160.328 742.48 160.119 743.425 159.841C744.371 159.562 745.088 159.172 745.576 158.671C746.064 158.141 746.323 157.515 746.354 156.79C746.476 154.032 746.537 150.689 746.537 146.762C746.537 145.452 746.521 143.224 746.491 140.076C746.46 136.928 746.445 134.17 746.445 131.802C744.706 130.827 741.778 130.256 737.66 130.089C737.538 129.643 737.477 129.295 737.477 129.044C737.477 128.877 737.538 128.571 737.66 128.125ZM744.844 110.658C744.844 109.238 745.393 108.026 746.491 107.023C747.62 106.02 748.947 105.519 750.472 105.519C752.027 105.519 753.354 106.02 754.452 107.023C755.551 108.026 756.1 109.238 756.1 110.658C756.1 112.051 755.551 113.263 754.452 114.294C753.354 115.297 752.027 115.798 750.472 115.798C748.947 115.798 747.62 115.297 746.491 114.294C745.393 113.263 744.844 112.051 744.844 110.658Z" fill="white"/>
<path d="M706.454 102.426C712.219 101.925 717.375 100.783 721.92 99C722.713 99.3064 723.231 99.6825 723.475 100.128C723.475 131.691 723.613 150.578 723.887 156.79C723.918 157.515 724.146 158.141 724.573 158.671C725.031 159.172 725.672 159.562 726.495 159.841C727.319 160.119 728.005 160.328 728.554 160.467C729.103 160.579 729.82 160.69 730.705 160.802C730.827 161.248 730.888 161.596 730.888 161.846C730.888 162.014 730.827 162.32 730.705 162.766C729.637 162.71 728.539 162.654 727.41 162.599C726.312 162.543 725.443 162.501 724.802 162.473C724.162 162.445 723.567 162.431 723.018 162.431C722.56 162.431 722.042 162.445 721.462 162.473C720.882 162.501 720.089 162.543 719.083 162.599C718.076 162.654 717.085 162.71 716.109 162.766C715.956 162.71 715.819 162.64 715.697 162.557C715.605 162.501 715.529 162.459 715.468 162.431C715.437 162.376 715.392 162.306 715.331 162.223C715.27 162.111 715.224 162.041 715.193 162.014C715.163 161.986 715.117 161.902 715.056 161.763C715.026 161.596 714.995 161.498 714.965 161.47C715.087 160.802 715.148 159.297 715.148 156.957C710.115 161.47 705.463 163.727 701.192 163.727C696.495 163.727 692.666 162.111 689.707 158.88C686.749 155.648 685.269 151.247 685.269 145.675C685.269 143.753 685.513 141.831 686.001 139.909C686.489 137.987 687.298 136.092 688.426 134.226C689.555 132.359 690.943 130.716 692.59 129.295C694.237 127.874 696.327 126.732 698.859 125.869C701.39 124.977 704.197 124.531 707.278 124.531C709.565 124.531 712.25 124.977 715.331 125.869C715.27 120.576 715.239 113.987 715.239 106.104C713.5 105.184 710.572 104.613 706.454 104.39C706.332 103.945 706.271 103.61 706.271 103.388C706.271 103.193 706.332 102.872 706.454 102.426ZM705.585 158.253C708.635 158.253 711.853 156.762 715.239 153.782C715.3 151.052 715.331 145.884 715.331 138.279V132.22C713.226 128.905 710.008 127.247 705.676 127.247C704.761 127.247 703.846 127.373 702.931 127.624C702.016 127.874 701.04 128.376 700.002 129.128C698.965 129.88 698.05 130.841 697.257 132.011C696.495 133.181 695.854 134.811 695.335 136.9C694.817 138.962 694.558 141.343 694.558 144.046C694.558 148.168 695.488 151.567 697.349 154.241C699.24 156.916 701.985 158.253 705.585 158.253Z" fill="white"/>
<path d="M625.329 125.451C626.427 125.506 627.525 125.562 628.623 125.618C629.722 125.674 630.591 125.715 631.232 125.743C631.872 125.771 632.467 125.785 633.016 125.785C633.474 125.785 634.007 125.771 634.618 125.743C635.228 125.715 636.051 125.674 637.088 125.618C638.156 125.562 639.178 125.506 640.154 125.451C640.703 125.618 641.145 126.05 641.481 126.746C641.45 126.969 641.389 127.303 641.298 127.749C641.237 128.167 641.176 128.682 641.115 129.295C641.084 129.88 641.069 130.604 641.069 131.468L640.978 151.316C640.978 156.331 642.64 158.838 645.965 158.838C649.046 158.838 653.423 156.985 659.097 153.28C659.097 144.979 658.96 137.708 658.685 131.468C658.685 130.966 658.578 130.521 658.365 130.131C658.151 129.741 657.816 129.406 657.358 129.128C656.931 128.849 656.535 128.626 656.169 128.459C655.833 128.264 655.33 128.097 654.659 127.958C653.988 127.791 653.515 127.693 653.24 127.665C652.966 127.61 652.508 127.526 651.867 127.415C651.745 126.969 651.684 126.635 651.684 126.412C651.684 126.217 651.745 125.896 651.867 125.451C652.935 125.506 654.018 125.562 655.116 125.618C656.245 125.674 657.129 125.715 657.77 125.743C658.411 125.771 659.005 125.785 659.555 125.785C660.012 125.785 660.546 125.771 661.156 125.743C661.766 125.715 662.59 125.674 663.627 125.618C664.694 125.562 665.716 125.506 666.692 125.451C666.845 125.534 666.967 125.618 667.058 125.701C667.181 125.757 667.272 125.841 667.333 125.952C667.425 126.036 667.486 126.105 667.516 126.161C667.547 126.189 667.592 126.286 667.653 126.454C667.714 126.593 667.76 126.69 667.791 126.746C667.547 128.25 667.425 129.824 667.425 131.468C667.242 135.563 667.15 138.892 667.15 141.455C667.15 142.792 667.181 145.034 667.242 148.182C667.303 151.33 667.333 154.088 667.333 156.456C669.072 157.375 672 157.946 676.118 158.169C676.271 158.866 676.347 159.228 676.347 159.256C676.347 159.423 676.271 159.715 676.118 160.133C670.353 160.635 665.198 161.777 660.653 163.56C659.86 163.253 659.341 162.877 659.097 162.431V155.913C656.047 158.309 653.164 160.217 650.449 161.638C647.765 163.03 645.05 163.727 642.304 163.727C638.827 163.727 636.356 162.835 634.892 161.053C633.458 159.27 632.711 156.47 632.65 152.654L632.284 131.468C632.223 130.827 632.086 130.354 631.872 130.047C631.689 129.713 631.369 129.406 630.911 129.128C630.484 128.849 630.088 128.626 629.722 128.459C629.356 128.264 628.837 128.097 628.166 127.958C627.495 127.791 627.022 127.693 626.747 127.665C626.473 127.61 626 127.526 625.329 127.415C625.207 126.969 625.146 126.635 625.146 126.412C625.146 126.217 625.207 125.896 625.329 125.451Z" fill="white"/>
<path d="M602.405 117.427C602.71 117.316 603.061 117.26 603.458 117.26C603.854 117.26 604.266 117.316 604.693 117.427V126.579H618.557C618.74 126.996 618.832 127.512 618.832 128.125C618.832 128.654 618.74 129.141 618.557 129.587H604.693V151.901C604.693 156.302 606.905 158.503 611.328 158.503C613.005 158.503 614.439 158.211 615.629 157.626C616.849 157.041 618.191 156.163 619.655 154.993C620.418 155.077 620.921 155.411 621.165 155.996C619.823 158.197 617.84 160.035 615.217 161.512C612.594 162.988 609.711 163.727 606.569 163.727C599.187 163.727 595.496 159.645 595.496 151.483V129.587H589.868C589.746 129.086 589.685 128.765 589.685 128.626C589.685 128.598 589.746 128.278 589.868 127.665C591.332 126.996 592.446 126.453 593.208 126.035C594.001 125.59 594.993 124.963 596.182 124.155C597.403 123.347 598.501 122.4 599.477 121.314C600.483 120.199 601.46 118.904 602.405 117.427Z" fill="white"/>
<path d="M574.769 118.765C573.61 113.667 571.474 109.711 568.363 106.898C565.282 104.084 561.576 102.677 557.244 102.677C553.004 102.677 549.71 103.597 547.361 105.435C545.043 107.274 543.884 109.725 543.884 112.79C543.884 114.489 544.051 115.896 544.387 117.01C544.722 118.124 545.409 119.211 546.446 120.269C547.483 121.3 548.993 122.219 550.976 123.027C552.958 123.807 555.551 124.559 558.754 125.284C560.493 125.674 562.003 126.036 563.284 126.37C564.596 126.704 566.029 127.164 567.585 127.749C569.171 128.334 570.529 128.961 571.657 129.629C572.817 130.298 573.96 131.134 575.089 132.137C576.248 133.112 577.179 134.198 577.88 135.396C578.612 136.594 579.192 138.014 579.619 139.658C580.077 141.274 580.305 143.043 580.305 144.965C580.305 147.528 579.787 149.896 578.75 152.069C577.712 154.214 576.355 156.024 574.677 157.501C573 158.977 571.063 160.231 568.866 161.262C566.67 162.292 564.443 163.044 562.186 163.518C559.929 163.992 557.687 164.228 555.46 164.228C548.688 164.228 541.474 162.627 533.817 159.423C533.97 156.414 534.046 154.562 534.046 153.865C534.046 149.325 533.634 144.798 532.811 140.285C533.146 140.09 533.482 139.992 533.817 139.992C534.244 139.992 534.626 140.09 534.961 140.285C535.602 143.878 536.654 147.054 538.118 149.812C539.613 152.57 541.321 154.757 543.243 156.373C545.165 157.96 547.147 159.158 549.191 159.966C551.265 160.746 553.355 161.136 555.46 161.136C560.249 161.136 563.925 160.008 566.487 157.751C569.08 155.467 570.376 152.459 570.376 148.726C570.376 144.965 569.415 142.137 567.494 140.243C565.602 138.321 561.972 136.761 556.604 135.563C549.893 134.031 544.646 131.774 540.864 128.794C537.112 125.785 535.236 121.815 535.236 116.885C535.236 114.294 535.693 111.982 536.608 109.948C537.554 107.887 538.759 106.243 540.223 105.017C541.718 103.764 543.456 102.733 545.439 101.925C547.422 101.089 549.374 100.518 551.296 100.212C553.248 99.8776 555.231 99.7104 557.244 99.7104C563.284 99.7104 569.568 100.992 576.096 103.555C575.913 105.198 575.821 106.912 575.821 108.694C575.821 112.873 576.187 116.23 576.919 118.765C576.523 118.904 576.187 118.974 575.913 118.974C575.608 118.974 575.226 118.904 574.769 118.765Z" fill="white"/>
<path d="M496.434 140.368H471.497C471.375 142.04 471.314 143.516 471.314 144.798C471.406 148.948 472.732 152.277 475.295 154.784C477.857 157.264 481.289 158.503 485.59 158.503C486.749 158.503 487.832 158.392 488.839 158.169C489.845 157.918 490.669 157.64 491.309 157.333C491.98 157.027 492.667 156.581 493.368 155.996C494.07 155.411 494.573 154.952 494.878 154.617C495.214 154.255 495.656 153.726 496.205 153.029C496.754 152.305 497.12 151.845 497.303 151.65C498.036 151.79 498.63 152.096 499.088 152.57C497.563 156.303 495.199 159.102 491.996 160.969C488.793 162.807 485.315 163.727 481.563 163.727C479.703 163.727 477.888 163.504 476.118 163.058C474.38 162.64 472.687 161.944 471.04 160.969C469.392 159.994 467.959 158.796 466.738 157.375C465.518 155.927 464.542 154.13 463.81 151.985C463.078 149.812 462.712 147.416 462.712 144.798C462.712 138.92 464.679 134.072 468.614 130.256C472.549 126.439 477.384 124.531 483.119 124.531C485.651 124.531 487.847 124.866 489.708 125.534C491.599 126.175 493.063 127.052 494.101 128.167C495.168 129.281 495.946 130.507 496.434 131.844C496.953 133.153 497.212 134.56 497.212 136.064C497.212 137.457 496.953 138.892 496.434 140.368ZM482.021 127.247C479.916 127.247 477.918 128.097 476.027 129.796C474.166 131.496 472.824 134.072 472 137.527H488.473C488.778 136.468 488.93 135.549 488.93 134.769C488.93 132.596 488.381 130.799 487.283 129.378C486.185 127.958 484.431 127.247 482.021 127.247Z" fill="white"/>
<path d="M452.463 151.65C453.195 151.79 453.789 152.096 454.247 152.57C452.722 156.303 450.358 159.102 447.155 160.969C443.952 162.807 440.474 163.727 436.722 163.727C434.862 163.727 433.047 163.504 431.278 163.058C429.508 162.64 427.785 161.944 426.107 160.969C424.46 159.994 423.011 158.796 421.76 157.375C420.54 155.927 419.549 154.13 418.786 151.985C418.054 149.812 417.688 147.416 417.688 144.798C417.688 138.752 419.717 133.864 423.774 130.131C427.831 126.398 432.894 124.531 438.965 124.531C443.235 124.531 446.713 125.381 449.397 127.08C452.112 128.752 453.469 130.897 453.469 133.515C453.469 134.992 452.935 136.217 451.868 137.192C450.8 138.167 449.488 138.655 447.933 138.655C446.285 138.655 444.959 138.223 443.952 137.36C442.945 136.468 442.442 135.437 442.442 134.267C442.442 132.15 443.616 130.813 445.965 130.256C445.752 129.615 445.065 128.961 443.906 128.292C442.747 127.596 441.1 127.247 438.965 127.247C437.866 127.247 436.829 127.373 435.853 127.623C434.877 127.846 433.825 128.334 432.696 129.086C431.598 129.838 430.652 130.827 429.859 132.053C429.096 133.278 428.456 134.992 427.937 137.192C427.419 139.365 427.159 141.9 427.159 144.798C427.159 146.748 427.373 148.517 427.8 150.104C428.258 151.692 428.959 153.127 429.905 154.408C430.85 155.69 432.147 156.693 433.794 157.417C435.441 158.141 437.378 158.503 439.605 158.503C441.008 158.503 442.335 158.336 443.586 158.002C444.837 157.64 445.843 157.264 446.606 156.874C447.399 156.484 448.238 155.899 449.122 155.119C450.037 154.311 450.648 153.74 450.953 153.406C451.258 153.043 451.761 152.458 452.463 151.65Z" fill="white"/>
<path d="M372.344 135.061C372.344 131.997 373.87 129.476 376.92 127.498C380.001 125.52 383.631 124.531 387.81 124.531C392.935 124.531 396.534 125.464 398.608 127.331C400.713 129.197 401.765 132.345 401.765 136.775V154.116C401.765 155.676 402.391 156.456 403.641 156.456C404.648 156.456 405.929 155.342 407.485 153.113C408.583 153.197 409.33 153.642 409.727 154.45C409.513 154.729 409.147 155.23 408.629 155.954C408.11 156.679 407.729 157.194 407.485 157.501C407.241 157.807 406.86 158.281 406.341 158.921C405.822 159.534 405.395 159.994 405.06 160.3C404.755 160.607 404.328 160.969 403.779 161.387C403.26 161.805 402.772 162.125 402.315 162.348C401.887 162.543 401.384 162.71 400.805 162.849C400.225 163.016 399.645 163.1 399.066 163.1C397.541 163.1 396.275 162.598 395.268 161.596C394.292 160.593 393.712 159.047 393.529 156.957C393.499 156.985 393.026 157.389 392.111 158.169C391.196 158.949 390.555 159.478 390.189 159.757C389.854 160.008 389.198 160.467 388.222 161.136C387.276 161.777 386.468 162.236 385.797 162.515C385.126 162.793 384.287 163.058 383.28 163.309C382.273 163.587 381.282 163.727 380.306 163.727C378.75 163.727 377.362 163.532 376.142 163.142C374.952 162.752 374.022 162.278 373.351 161.721C372.68 161.164 372.131 160.523 371.704 159.799C371.277 159.047 370.987 158.364 370.834 157.751C370.712 157.138 370.651 156.526 370.651 155.913C370.651 154.046 370.987 152.472 371.658 151.191C372.36 149.909 373.641 148.712 375.501 147.597C377.393 146.483 379.711 145.494 382.456 144.63C385.202 143.767 388.893 142.792 393.529 141.705V135.897C393.529 133.083 392.843 130.98 391.47 129.587C390.128 128.195 388.313 127.498 386.025 127.498C383.982 127.498 382.258 127.874 380.855 128.626C379.482 129.351 378.643 130.2 378.338 131.175C381.328 131.593 382.822 133.083 382.822 135.646C382.822 136.816 382.365 137.847 381.45 138.739C380.535 139.63 379.253 140.076 377.606 140.076C376.234 140.076 375.013 139.644 373.946 138.78C372.878 137.889 372.344 136.649 372.344 135.061ZM393.529 153.113V144.38C390.723 144.965 388.405 145.605 386.574 146.302C384.744 146.97 383.341 147.709 382.365 148.517C381.419 149.324 380.763 150.16 380.397 151.024C380.031 151.859 379.848 152.834 379.848 153.949C379.848 155.342 380.291 156.442 381.175 157.25C382.09 158.03 383.204 158.42 384.515 158.42C387.566 158.42 390.57 156.651 393.529 153.113Z" fill="white"/>
<path d="M311.763 128.125C317.742 127.568 322.897 126.426 327.229 124.698C328.052 124.949 328.586 125.311 328.83 125.785V130.674C333.528 126.579 338.241 124.531 342.969 124.531C347.666 124.531 351.495 126.133 354.453 129.337C357.412 132.512 358.892 136.816 358.892 142.249C358.892 144.282 358.648 146.288 358.16 148.266C357.672 150.216 356.863 152.138 355.735 154.032C354.636 155.899 353.264 157.542 351.617 158.963C350 160.384 347.941 161.54 345.44 162.431C342.938 163.295 340.178 163.727 337.158 163.727C334.321 163.727 331.575 163.239 328.922 162.264C328.922 169.841 329.013 175.427 329.196 179.02C329.227 179.605 329.486 180.121 329.974 180.567C330.462 181.04 331.026 181.402 331.667 181.653C332.308 181.932 333.177 182.168 334.275 182.363C335.373 182.586 336.273 182.726 336.975 182.781C337.707 182.865 338.652 182.962 339.812 183.074C339.995 183.408 340.086 183.742 340.086 184.077C340.086 184.411 339.995 184.731 339.812 185.038C333.467 184.843 328.312 184.745 324.346 184.745C321.296 184.745 317.422 184.843 312.724 185.038C312.602 184.536 312.541 184.216 312.541 184.077C312.541 183.965 312.602 183.631 312.724 183.074C313.792 182.934 314.615 182.809 315.195 182.698C315.774 182.586 316.552 182.377 317.528 182.071C318.504 181.792 319.237 181.388 319.725 180.859C320.213 180.358 320.472 179.745 320.502 179.02C320.625 176.29 320.686 170.134 320.686 160.551C320.686 156.094 320.67 150.62 320.64 144.129C320.609 137.638 320.594 133.529 320.594 131.802C318.855 130.827 315.912 130.256 311.763 130.089C311.641 129.643 311.58 129.295 311.58 129.044C311.58 128.877 311.641 128.571 311.763 128.125ZM338.576 130.005C336.593 130.005 334.855 130.34 333.36 131.008C331.865 131.677 330.355 132.652 328.83 133.933V155.662C330.63 159.2 333.848 160.969 338.485 160.969C339.4 160.969 340.315 160.83 341.23 160.551C342.176 160.272 343.167 159.743 344.204 158.963C345.241 158.183 346.141 157.194 346.904 155.996C347.697 154.798 348.353 153.183 348.871 151.149C349.39 149.115 349.649 146.803 349.649 144.213C349.649 141.538 349.268 139.156 348.505 137.067C347.743 134.978 346.507 133.278 344.799 131.969C343.091 130.66 341.016 130.005 338.576 130.005Z" fill="white"/>
<path d="M299.958 118.765C298.799 113.667 296.664 109.711 293.552 106.898C290.472 104.084 286.765 102.677 282.434 102.677C278.194 102.677 274.899 103.597 272.55 105.435C270.232 107.274 269.073 109.725 269.073 112.79C269.073 114.489 269.241 115.896 269.576 117.01C269.912 118.124 270.598 119.211 271.635 120.269C272.672 121.3 274.182 122.219 276.165 123.027C278.148 123.807 280.741 124.559 283.944 125.284C285.682 125.674 287.192 126.036 288.473 126.37C289.785 126.704 291.219 127.164 292.775 127.749C294.361 128.334 295.718 128.961 296.847 129.629C298.006 130.298 299.15 131.134 300.279 132.137C301.438 133.112 302.368 134.198 303.07 135.396C303.802 136.594 304.381 138.014 304.808 139.658C305.266 141.274 305.495 143.043 305.495 144.965C305.495 147.528 304.976 149.896 303.939 152.069C302.902 154.214 301.544 156.024 299.867 157.501C298.189 158.977 296.252 160.231 294.056 161.262C291.859 162.292 289.633 163.044 287.375 163.518C285.118 163.992 282.876 164.228 280.649 164.228C273.877 164.228 266.663 162.627 259.007 159.423C259.159 156.414 259.235 154.562 259.235 153.865C259.235 149.325 258.824 144.798 258 140.285C258.336 140.09 258.671 139.992 259.007 139.992C259.434 139.992 259.815 140.09 260.151 140.285C260.791 143.878 261.844 147.054 263.308 149.812C264.802 152.57 266.511 154.757 268.432 156.373C270.354 157.96 272.337 159.158 274.381 159.966C276.455 160.746 278.544 161.136 280.649 161.136C285.438 161.136 289.114 160.008 291.676 157.751C294.269 155.467 295.566 152.459 295.566 148.726C295.566 144.965 294.605 142.137 292.683 140.243C290.792 138.321 287.162 136.761 281.793 135.563C275.082 134.031 269.836 131.774 266.053 128.794C262.301 125.785 260.425 121.815 260.425 116.885C260.425 114.294 260.883 111.982 261.798 109.948C262.743 107.887 263.948 106.243 265.412 105.017C266.907 103.764 268.646 102.733 270.629 101.925C272.611 101.089 274.564 100.518 276.485 100.212C278.438 99.8776 280.42 99.7104 282.434 99.7104C288.473 99.7104 294.757 100.992 301.285 103.555C301.102 105.198 301.011 106.912 301.011 108.694C301.011 112.873 301.377 116.23 302.109 118.765C301.712 118.904 301.377 118.974 301.102 118.974C300.797 118.974 300.416 118.904 299.958 118.765Z" fill="white"/>
<path d="M628.446 9.60548C631.91 9.20313 635.718 10.247 637.737 13.0944C638.744 14.5145 639.633 14.6513 639.375 16.6689C638.748 21.558 638.217 26.2004 638.531 31.1304C642.182 32.1205 644.675 32.4589 647.994 34.6403C649.622 35.7103 651.434 37.1212 650.737 39.3872C649.792 42.4535 646.402 42.7245 643.869 43.6933C642.582 44.1699 641.548 44.6441 640.323 45.2974C639.9 48.0868 640.143 50.9173 640.243 53.7219C640.268 54.4649 640.345 54.8918 640.062 55.601C639.951 55.8772 639.876 56.1669 639.839 56.4626C639.799 56.8051 639.829 57.2854 640.056 57.5672C640.374 57.5048 641.694 56.2272 642.088 55.8867L641.999 56.0056C641.479 56.6998 640.689 57.5034 640.805 58.3145C641.126 58.9634 641.895 59.2533 642.579 59.6513C645.258 59.4075 647.938 59.1806 650.62 58.9706C652.752 58.8136 655.209 58.785 657.267 58.3053C658.554 58.664 659.723 59.3961 660.916 59.9381C666.877 62.6463 669.906 68.4979 663.154 72.5239C661.073 72.5504 657.869 71.4836 655.602 71.2782C649.803 70.7529 644.08 70.8169 638.294 71.2742C635.625 71.6376 632.545 71.6522 629.717 71.9772C625.023 72.5165 619.769 74.8766 615.309 75.4182C614.072 75.578 612.816 75.5115 611.601 75.2218C608.714 74.5296 606.579 72.961 605.046 70.4449C604.939 69.2455 605.059 68.4396 605.267 67.2652C604.994 66.7761 604.726 66.3991 604.928 65.8598C605.37 65.7721 606.244 66.1858 606.71 66.3649C612.138 65.1331 614.547 64.2581 619.725 62.1704C619.094 61.8623 617.541 61.4117 617.186 60.8604C617.512 60.2657 620.204 59.7178 621.04 59.3233C623.383 58.2155 624.546 55.7219 626.398 54.3443C626.521 52.8033 626.543 51.256 626.466 49.712C622.434 47.6726 617.407 46.9385 614.693 42.9173C614.101 41.9519 614.526 41.0322 615.569 40.7598C619.794 39.6543 623.963 39.0647 627.96 37.1379C628.166 34.0581 628.803 16.9488 628.023 15.3784L627.983 15.299C627.391 14.1177 625.869 13.4164 625.548 12.1756C625.008 10.093 627.053 9.89814 628.446 9.60548Z" fill="white"/>
<path d="M598.406 24.1553C601.474 24.5881 606.022 27.7163 606.999 30.7897C607.955 33.7864 604.907 35.7662 603.304 37.8667C601.514 40.2122 599.577 42.4379 598.091 44.9895C598.164 45.5846 598.18 46.435 598.511 46.9436C598.641 47.1431 598.832 47.3018 599.065 47.3463C601.381 47.7881 610.241 39.4233 612.832 37.7336C613.248 37.462 613.724 37.136 614.225 37.2423L614.261 37.471C613.692 39.2526 605.265 47.2762 603.664 48.8134C608.304 49.8176 610.404 53.2714 610.275 58.0034C610.252 58.9245 609.525 59.6485 608.936 60.3039C605.073 60.0864 602.287 57.8354 598.809 56.0359C598.627 59.8493 598.514 63.6655 598.468 67.483C598.446 71.2632 599.303 81.46 598.082 84.4351C597.802 85.12 597.296 85.8386 596.585 86.1196C595.987 86.3558 595.366 86.2398 594.797 85.9872C593.184 85.2717 591.196 83.0321 590.55 81.4073C590.089 80.0927 589.002 77.6856 588.865 76.3548C588.474 72.5877 589.436 68.6205 590.05 64.9253C590.45 62.5314 590.696 59.9898 591.156 57.6583C586.711 60.8651 584.608 65.5142 580.362 68.7547C580.024 69.0122 579.207 69.2415 578.773 69.3637C574.716 68.1058 574.547 65.3682 573.404 61.7363C572.751 59.656 575.98 56.5024 577.28 54.9832C578.998 52.9979 580.697 50.9966 582.376 48.9794C584.094 46.896 585.851 44.6817 587.441 42.5032C588.442 41.1319 589.303 39.6495 590.322 38.2485C585.405 40.4104 582.22 40.4682 577.457 37.2767C575.252 35.7985 573.923 34.067 573.444 31.4021C573.69 30.6091 573.963 29.889 574.258 29.1122C575.148 29.7466 575.728 30.5184 576.723 31.2184C582.843 32.1024 592.934 26.7146 598.406 24.1553Z" fill="white"/>
<path d="M587.171 1.02265C589.465 0.983732 592.458 0.955277 594.848 1.29113C599.451 1.93778 608.815 9.14778 604.532 14.4327C603.885 15.2873 601.644 16.4439 600.597 16.3296C596.368 15.8676 594.886 16.2353 591.175 18.3857C589.003 19.6442 586.933 20.7777 584.732 22.2987C582.348 24.1451 579.28 26.7569 576.682 28.0751C577.748 26.6698 578.983 25.7999 580.096 24.5798C583.793 20.5297 591.159 15.0662 593.299 10.1349C592.225 8.42107 590.885 6.79354 589.726 5.12517C588.799 3.79089 587.998 2.42004 587.171 1.02265Z" fill="white"/>
<path d="M538.338 1.00154C542.474 0.920541 547.274 4.05285 549.945 7.05128C551.52 9.16914 549.997 12.7129 549.894 14.8189C549.494 23.018 549.235 31.7916 549.683 39.9442L551.023 62.1752C551.345 67.2749 552.307 73.0883 551.405 78.0915C550.931 80.7165 549.361 83.1678 547.101 84.5642C545.915 85.2963 543.888 86.504 542.404 86.2023C542.027 85.791 542.073 85.5731 541.937 84.9853C541.347 84.6699 540.45 85.083 539.896 84.838C538.607 84.2687 536.554 81.3478 535.771 80.1582C534.059 77.5582 532.225 75.2505 530.418 72.8793C528.857 70.8307 524.137 65.9036 523.177 64.1329C526.061 64.8948 527.877 66.7643 530.588 67.9019C531.708 68.3723 535.655 70.1292 536.622 69.772L536.74 69.467C536.625 68.7505 536.299 68.2713 535.942 67.6424C536.47 68.1826 537.06 68.6547 537.641 69.1392C537.893 63.1249 537.631 56.9449 537.662 50.868C537.719 49.9767 537.762 49.0848 537.791 48.1923C537.993 38.1291 537.881 28.062 537.454 18.0057C537.336 15.4846 537.336 12.6526 536.977 10.1553C536.872 9.42008 536.259 8.81871 535.755 8.28779C529.783 10.5519 523.791 13.8833 517.471 15.2294C515.294 15.6933 512.699 14.0498 510.803 13.052C505.214 16.7927 509.668 19.7196 501.792 21.9652C499.197 21.0388 498.288 20.4399 495.347 19.6991C495.908 18.7175 496.958 16.4882 495.386 15.7904C494.278 15.2987 492.687 16.106 491.604 16.5471C492.097 15.69 492.65 14.9591 493.232 14.1647C493.689 10.9314 491.876 10.1963 490.824 7.22046C494.039 6.51945 498.406 7.22153 501.446 8.40959C504.189 9.48136 506.333 11.5306 507.484 14.246C510.165 12.6713 511.214 9.46378 513.877 8.45682C519.343 6.41156 525.271 5.69832 530.709 3.48847C533.328 2.4248 535.482 1.21779 538.338 1.00154Z" fill="white"/>
<path fill-rule="evenodd" clip-rule="evenodd" d="M524.661 28.1676C521.482 25.9683 518.468 24.2131 514.477 24.5254C511.717 24.8965 509.446 27.1391 507.175 29.3812C505.962 30.5787 504.749 31.776 503.462 32.6881C503.387 32.6052 503.304 32.5112 503.215 32.4104C502.634 31.7507 501.795 30.7976 501.084 30.7505C499.643 31.6348 498.711 47.7982 498.564 50.3439L498.561 50.3896C498.302 54.8903 499.08 55.5027 501.991 57.7923C502.159 57.9242 502.333 58.0616 502.515 58.2057L502.957 59.7454C505.372 62.1442 506.343 62.1048 508.35 62.0232C509.047 61.9948 509.87 61.9614 510.922 62.0234C512.19 62.1339 513.265 62.3366 514.487 62.7043C515.347 62.9632 516.083 63.2478 516.756 63.508C518.917 64.3428 520.427 64.9263 523.285 63.6061C523.319 62.928 523.693 61.6759 523.945 60.8322C523.986 60.6966 524.023 60.5714 524.056 60.461C525.617 55.1406 525.744 49.6537 525.87 44.1651C525.899 42.9167 525.928 41.6681 525.974 40.4215C525.984 39.3401 526.023 38.2551 526.062 37.1694C526.139 34.9939 526.216 32.8147 526.07 30.6518C525.998 29.595 525.529 28.7684 524.661 28.1676ZM515.25 46.2412L514.924 46.191C513.71 46.4921 512.468 46.7558 511.24 47.0165C509.995 47.2809 508.764 47.5423 507.592 47.8362C507.503 49.3314 507.295 54.1225 508.146 55.2034C515.184 55.0308 515.71 54.1994 515.53 47.4612L515.528 47.4001C515.519 47.0081 515.507 46.5349 515.25 46.2412ZM513.504 32.4586C515.238 32.202 516.036 32.2167 516.152 34.2779C516.278 36.5409 516.382 39.0977 516.009 41.3313C515.851 41.2235 515.703 41.1208 515.562 41.0229C514.365 40.1927 513.659 39.703 512.072 39.2847C510.37 39.0651 508.943 39.1887 507.303 39.6429C507.417 37.8482 507.564 36.0555 507.742 34.2658C509.569 33.375 511.536 32.9154 513.504 32.4586Z" fill="white"/>
<path d="M488.098 20.4414C488.51 20.6896 488.94 21.3584 488.903 21.8544C488.679 24.8432 488.179 27.7006 488.159 30.7107C487.974 34.411 488.652 38.4132 488.319 42.0827C487.4 52.094 487.654 62.0796 487.047 72.0858C486.951 73.6816 486.42 75.5036 484.362 75.0552C481.838 74.505 480.305 73.136 478.836 71.1111C478.158 70.0075 476.794 67.8816 476.853 66.6461C477.02 63.1331 478.023 59.1482 478.541 55.6172C479.987 45.7451 481.106 36.7101 481.27 26.7259C483.267 27.3473 484.786 28.9064 486.392 30.2713C486.875 28.4912 487.002 26.6052 487.283 24.7766C487.51 23.2992 487.795 21.905 488.098 20.4414Z" fill="white"/>
<path d="M398.908 27.6596C403.662 27.2655 410.257 30.8191 407.738 36.4824C406.71 38.7942 404.739 42.7221 403.166 44.5895C400.47 47.7914 395.135 50.5991 391.279 52.2924C389.805 52.8664 385.193 54.4284 384.062 53.1219C383.212 49.8332 392.432 42.9628 394.131 40.0041C396.043 36.6751 398.285 33.7294 398.588 29.7381C398.293 29.3167 397.945 28.9374 397.995 28.4363C398.219 27.9961 398.47 27.9047 398.908 27.6596Z" fill="white"/>
<path d="M421.075 48.4723C422.906 48.2515 428.545 49.4616 429.858 51.1831C430.17 51.5916 429.631 52.947 429.448 53.464C429.601 53.6966 431.11 54.2155 431.482 54.3576C431.005 54.9216 430.126 56.4547 429.673 56.81C427.727 58.3347 422.39 59.6404 420.056 60.1946C420.892 62.8517 419.095 68.4501 418.725 71.7253C421.974 71.7186 425.303 71.4891 428.578 71.5077C431.731 71.5255 434.902 71.7123 438.039 71.534C438.603 71.1836 438.212 70.8123 438.501 70.378C439.447 69.0527 441.743 70.9328 442.723 71.3013C447.251 73.0042 451.412 74.0192 453.437 78.9025C454.146 80.6138 455.873 80.6712 454.071 83.2492C452.465 85.5469 450.263 85.7645 447.776 86.2745C445.691 85.3023 442.699 84.5507 440.471 83.9304C436.175 82.6866 431.849 82.9496 427.478 82.6988C421.507 82.356 415.858 82.4103 409.892 82.8587C406.344 83.1861 402.803 83.5883 399.271 84.0647C394.607 84.6975 386.315 86.5698 381.528 86.0743C379.992 85.9152 378.013 82.5973 377.32 81.0623C377.365 80.9273 377.659 80.0583 377.788 79.9376C378.866 78.9242 381.194 76.9566 382.573 76.5554C383.084 76.4068 384.044 77.3021 384.41 77.6071C387.37 77.1823 392.129 75.8503 395.216 75.1554C398.123 74.5008 404.4 73.5495 406.64 72.5517C407.455 71.4789 408.952 64.2836 409.117 62.6902C402.763 63.2531 399.351 65.4777 394.786 59.0116C394.324 58.3578 393.819 57.6536 393.95 56.8185C394.474 56.2725 396.911 56.1633 397.886 55.7932C405.398 52.9408 413.845 51.8723 421.075 48.4723Z" fill="white"/>
<path d="M407.256 1.04991C413.072 0.571382 419.541 3.55778 422.156 8.99153C422.916 10.5719 422.863 12.2392 422.853 13.948C428.29 13.1597 434.273 12.5132 439.753 12.6208C441.967 12.6643 445.722 15.8145 447.316 17.3413C448.989 18.9436 449.584 20.6949 450.163 22.8506C447.386 28.7101 442.635 26.5226 437.353 27.0486C433.871 27.3953 430.829 27.7614 427.301 27.7169C427.194 30.7299 426.675 32.5921 428.704 34.7813C431.128 35.1374 434.265 34.9463 436.258 35.3589C438.493 36.184 440.581 38.5851 441.504 40.5699C443.034 43.8588 440.156 44.3872 437.523 45.5556C436.197 45.1823 433.771 44.4826 432.468 44.307C428.564 43.7808 424.848 44.3569 421.487 41.7715C417.628 38.8039 418.763 33.8387 418.871 29.6121C418.904 28.3186 418.808 27.419 418.65 26.1419C419.185 25.2867 419.444 24.7036 420.571 24.5723C422.459 24.3525 424.231 25.4921 425.666 26.5678C429.042 25.1555 432.01 22.5551 434.431 19.8336L432.904 19.3043C429.905 18.6576 424.437 19.7523 421.438 20.4895C420.178 20.7064 418.533 21.3677 417.279 21.4435C410.975 21.8238 404.821 22.5898 398.575 23.5005C395.004 24.0213 391.791 24.2772 388.249 25.1451C389.281 30.3728 389.493 29.2878 387.543 34.3135C385.671 39.1382 386.141 43.4894 380.012 45.1173C379.279 44.9704 378.184 44.7171 377.625 44.2229C370.923 38.2986 378.896 28.1084 381.207 21.7713C381.714 20.3824 382.942 16.5741 383.34 16.0132C383.821 15.802 383.622 15.8076 384.121 15.9714C385.346 17.0907 386.623 21.3683 387.253 23.1667C392.051 20.5738 398.908 18.7837 404.241 17.5718C407.524 16.8263 410.261 16.8328 413.225 15.1326C412.085 13.7696 411.138 11.8817 409.92 10.3277C408.275 10.5626 406.628 10.7846 404.979 10.9935C405.908 10.0413 407.125 9.23877 408.254 8.54585C407.545 5.65783 406.536 5.14419 405.562 2.61274C406.101 1.93062 406.496 1.47247 407.256 1.04991Z" fill="white"/>
<path d="M150.635 43.335L193.237 0H53.4668L0 53.7109L54.5654 107.788H135.132V129.517H41.3818L0 172.119H135.132L188.354 117.676L135.132 64.331H53.4668V43.335H150.635Z" fill="white"/>
</svg>
